<?xml version="1.0" encoding="UTF-8"?><svg id="uuid-03a3ed3a-c6dd-4f38-89f3-be81653d09e1" xmlns="http://www.w3.org/2000/svg" xmlns:xlink="http://www.w3.org/1999/xlink" viewBox="0 0 150 150"><defs><style>.uuid-096de9b0-d41c-4c1c-a564-0922323fd77f,.uuid-cb7d654c-8bfc-4543-a165-e4cb8f6c59a1{fill:none;}.uuid-9f8bada8-2966-4dc3-9210-0b7f90a9c239{fill:#ed6842;stroke:#ed6842;stroke-width:4.49984px;}.uuid-9f8bada8-2966-4dc3-9210-0b7f90a9c239,.uuid-3e4571f4-7a97-4797-9d5f-c3f37a73ec28{stroke-linecap:square;stroke-linejoin:round;}.uuid-644f90bf-14e3-4c41-ac8e-a08d447ee0f5{fill:#00a6d6;}.uuid-bd259203-9346-4a5b-8e90-043906ccc443,.uuid-3e4571f4-7a97-4797-9d5f-c3f37a73ec28{fill:#ccdae8;}.uuid-cb7d654c-8bfc-4543-a165-e4cb8f6c59a1{clip-path:url(#uuid-d7e39930-3950-478c-9525-f3272c221b12);}.uuid-3e4571f4-7a97-4797-9d5f-c3f37a73ec28{stroke:#ccdae8;stroke-width:3.63133px;}</style><clipPath id="uuid-d7e39930-3950-478c-9525-f3272c221b12"><rect class="uuid-096de9b0-d41c-4c1c-a564-0922323fd77f" x="35.5" y="4.5" width="81" height="82" transform="translate(-7.00122 14.56382) rotate(-10.46688)"/></clipPath></defs><rect class="uuid-9f8bada8-2966-4dc3-9210-0b7f90a9c239" x="20.55804" y="73.69454" width="14.7411" height="30.41188" transform="translate(48.19196 -2.05389) rotate(30)"/><circle class="uuid-3e4571f4-7a97-4797-9d5f-c3f37a73ec28" cx="29.75887" cy="104.32869" r="4.55601"/><g class="uuid-cb7d654c-8bfc-4543-a165-e4cb8f6c59a1"><path class="uuid-bd259203-9346-4a5b-8e90-043906ccc443" d="m77.28141,45.73526s-3.43306-4.57267-7.54394-1.1337c-4.11087,3.43897-22.1585,21.85074-26.81368,26.29305-2.41241,2.3021-.52034,5.60471,4.69307,3.14872,8.40637-3.96016,15.01066-8.71868,18.76764-8.71868,1.8224,0,.9112,4.55601.9112,13.66802,0,13.64527,9.98571-33.2574,9.98571-33.2574Z"/><circle class="uuid-bd259203-9346-4a5b-8e90-043906ccc443" cx="87.2737" cy="25.44456" r="13.2263" transform="translate(-2.94884 14.30824) rotate(-9.21747)"/><path class="uuid-bd259203-9346-4a5b-8e90-043906ccc443" d="m75.96309,41.73214h15.14223c3.96478,0,7.18367,3.2189,7.18367,7.18367v15.49209c0,9.87425-8.01664,17.89089-17.89089,17.89089h-4.43501c-3.96478,0-7.18367-3.2189-7.18367-7.18367v-26.19931c0-3.96478,3.2189-7.18367,7.18367-7.18367Z"/><path class="uuid-bd259203-9346-4a5b-8e90-043906ccc443" d="m90.2793,112.42582l-4.61258-.07233c-1.51354.1382-2.85256-.9767-2.99082-2.49024l2.02401-19.9041c.05288-.18886.0465-.3894-.0183-.57452l-4.05095-11.57321c-.13442-.38403-.49686-.64117-.90374-.64117h0c-.50424,0-.92207.39106-.95541.89419l-.53184,8.02611c-.14336,2.16343-.90397,4.2404-2.19169,5.98475l-9.41871,6.29674c-.73063,1.33272-2.4033,1.82082-3.73603,1.09022l-3.63277,3.61026c-1.33278-.73063-1.8209-2.40336-1.09024-3.73612l6.44263-11.71578c1.18644-1.60715,1.88723-3.52077,2.01931-5.51404l1.05277-15.88775c.03334-.50314.45117-.8942.95541-.8942h21.31353c.40689,0,.76934.25716.90375.6412l5.57772,21.14409c.493,1.40862.54159,2.93464.1392,4.37177l-3.80493,17.95313c.1383,1.51364-.97668,2.85277-2.49033,2.99098Z"/></g><rect class="uuid-9f8bada8-2966-4dc3-9210-0b7f90a9c239" x="41.05804" y="96.19454" width="14.7411" height="30.41188" transform="translate(62.18844 -9.28946) rotate(30)"/><circle class="uuid-3e4571f4-7a97-4797-9d5f-c3f37a73ec28" cx="50.25887" cy="126.82869" r="4.55601"/><path class="uuid-644f90bf-14e3-4c41-ac8e-a08d447ee0f5" d="m95.78141,66.23526s-3.43306-4.57267-7.54394-1.1337c-4.11087,3.43897-22.1585,21.85074-26.81368,26.29305-2.41241,2.3021-.52034,5.60471,4.69307,3.14872,8.40637-3.96016,15.01066-8.71868,18.76764-8.71868,1.8224,0,.9112,4.55601.9112,13.66802,0,13.64527,9.98571-33.2574,9.98571-33.2574Z"/><circle class="uuid-644f90bf-14e3-4c41-ac8e-a08d447ee0f5" cx="105.7737" cy="45.94456" r="13.2263" transform="translate(-5.99369 17.53631) rotate(-9.21747)"/><path class="uuid-644f90bf-14e3-4c41-ac8e-a08d447ee0f5" d="m94.46309,62.23214h15.14223c3.96478,0,7.18367,3.2189,7.18367,7.18367v10.02489c0,12.89168-10.46641,23.3581-23.3581,23.3581h-.00003c-3.39508,0-6.15145-2.75637-6.15145-6.15145v-27.23153c0-3.96478,3.2189-7.18367,7.18367-7.18367Z"/><path class="uuid-644f90bf-14e3-4c41-ac8e-a08d447ee0f5" d="m108.7793,132.92582l-4.61258-.07233c-1.51354.1382-2.85256-.9767-2.99082-2.49024l2.02401-19.9041c.05288-.18886.0465-.3894-.0183-.57452l-4.05095-11.57321c-.13442-.38403-.49686-.64117-.90374-.64117h0c-.50424,0-.92207.39106-.95541.89419l-.53184,8.02611c-.14336,2.16343-.90397,4.2404-2.19169,5.98475l-11.41871,15.29674c-.73063,1.33272-2.4033,1.82082-3.73603,1.09022l-3.63277-2.38974c-1.33278-.73063-1.8209-2.40336-1.09024-3.73612l8.44263-14.71578c1.18644-1.60715,1.88723-3.52077,2.01931-5.51404l1.05277-15.88775c.03334-.50314.45117-.8942.95541-.8942h21.31353c.40689,0,.76934.25716.90375.6412l5.57772,21.14409c.493,1.40862.54159,2.93464.1392,4.37177l-3.80493,17.95313c.1383,1.51364-.97668,2.85277-2.49033,2.99098Z"/></svg>