<?xml version="1.0" encoding="utf-8"?>
<!-- Generator: Adobe Illustrator 26.3.1, SVG Export Plug-In . SVG Version: 6.00 Build 0)  -->
<svg version="1.1" xmlns="http://www.w3.org/2000/svg" xmlns:xlink="http://www.w3.org/1999/xlink" x="0px" y="0px"
	 viewBox="0 0 1567 628" style="enable-background:new 0 0 1567 628;" xml:space="preserve">
<style type="text/css">
	.st0{font-family:'BrandonGrotesque-Light';}
	.st1{font-size:437.2792px;}
	.st2{font-family:'BrandonGrotesque-Black';}
	.st3{fill:#FFFFFF;}
</style>
<g id="Colour">
</g>
<g id="Black">
	<text id="GreenTU_-_Black" transform="matrix(1 0 0 1 -1611.4834 623.8701)"><tspan x="0" y="0" class="st0 st1">Green</tspan><tspan x="1091.44" y="0" class="st2 st1">TU</tspan></text>
</g>
<g id="White">
	<g id="TU_Delft_-_White">
		<path class="st3" d="M163,198.7c14.11,0,21.81-9.4,21.81-22.55v-67.07h30.02v68.6c-0.28,30.19-24.47,42.03-51.83,42.03
			s-51.49-11.84-51.83-42.03v-68.6h30.02v67.07C141.24,189.29,148.89,198.7,163,198.7z"/>
		<polygon class="st3" points="33.39,217.45 63.41,217.45 63.41,130.1 97.06,130.1 97.06,109.08 -0.26,109.08 -0.26,130.1 
			33.39,130.1 		"/>
		<path class="st3" d="M105.56,56.28c-7.31,2.32-14.9,0.45-14.84-9.35c0-14.95,35.06-27.47,39.94-40.5c1.19-3.23,1.3-5.95-0.28-5.83
			c-1.13,0.06-0.23,1.7-2.72,4.14c-14.5,14.56-38.86,14.5-57.55,22.89C57.86,33.12,21.95,50,30.22,87.67
			c0.4,1.81,1.47,7.76,2.55,7.76c1.25,0,1.25-3.57,1.25-7.87C33.73,65.12,60.3,58.89,68.96,44.22c1.02-1.76,2.83-4.19,3.23-3.06
			c0.23,0.57,0.06,1.36-0.28,2.95c-2.72,12.07-15.29,19.77-11.73,28.38c4.65,11.16,17.96,2.83,22.09-4.36c1.08-1.98,1.7-3.23,2.44-3
			c0.57,0.17,0.51,2.44,0.17,4.48c-2.21,12.97-5.15,20.22-14.67,27.64c-3.06,2.38-7.82,2.83-7.19,4.65c0.17,0.45,2.21,0.4,3.85,0.23
			c25.26-1.64,46.39-31.38,52-50.87c0.57-1.36,0.74-2.66,0.17-3.12c-0.74-0.57-1.87,0.74-3,1.76
			C113.15,52.49,109.18,55.15,105.56,56.28z"/>
		<path class="st3" d="M361.94,172.58c0.11-11.78,7.19-22.38,19.09-22.38c13.82,0,19.2,9.46,19.2,22.38H361.94z M415.3,182.49v-7.08
			c0-20.85-11.84-35.57-33.2-35.57c-23.85,0-35.01,18.47-35.01,40.56c0,22.21,9.63,39.37,33.82,39.37
			c18.01,0,31.21-8.55,33.48-25.66h-15.01c-1.64,10.93-7.19,15.29-18.3,15.29c-14.56,0-19.43-12.97-19.43-26.85h53.64V182.49z"/>
		<rect x="432.58" y="109.08" class="st3" width="14.28" height="108.37"/>
		<path class="st3" d="M491.61,217.45v-65.43H509v-9.91h-17.39v-12.18c0-8.72,4.19-10.2,12.29-10.2c2.38,0,4.82,0.28,7.19,0.45
			v-11.84c-3.34-0.74-6.74-1.53-10.2-1.53c-13.48,0-23.57,6.8-23.57,21.19v14.11H462.6v9.91h14.73v65.43H491.61z"/>
		<path class="st3" d="M517.15,142.1v9.91h12.92v48.04c0,10.03,0.17,19.66,21.36,19.66c3.29,0,6.4-0.28,9.74-0.91v-10.93
			c-2.32,0.57-5.27,0.91-7.53,0.91c-5.1,0-9.29-2.55-9.29-7.93v-48.77h17.39v-9.91h-17.39V121.6l-14.28,4.48v16.09L517.15,142.1z"/>
		<path class="st3" d="M244.85,217.45h37.22c46.34,0,51.21-39.26,51.21-54.21c0-14.95-4.87-54.21-51.21-54.21h-37.22V217.45z
			 M259.86,122h22.21c25.04,0,35.46,18.92,35.46,41.3s-10.42,41.3-35.46,41.3h-22.21V122z"/>
	</g>
	<text id="GreenTU_-_White" transform="matrix(1 0 0 1 -24.2393 623.4791)"><tspan x="0" y="0" class="st3 st0 st1">Green</tspan><tspan x="1091.44" y="0" class="st3 st2 st1">TU</tspan></text>
</g>
</svg>
